# xmcd CD database file
#
# Track frame offsets:
#	150
#	14512
#	26692
#	42814
#	57999
#	76692
#	90660
#	108933
#	122241
#	137287
#	151943
#	163386
#
# Disc length: 2490 seconds
#
# Revision: 1
# Processed by: cddbd v1.5.1PL0 Copyright (c) Steve Scherf et al.
# Submitted via: CDex 1.51
#
DISCID=8e09b80c
DTITLE=Los Alteños De La Sierra - Me Gusta Tener De A Dos
DYEAR=2004
DGENRE=Latin
TTITLE0=Dueña de mi vida
TTITLE1=Mas bonita que todas
TTITLE2=Sufriendo y penando
TTITLE3=Me gusta tener de a dos
TTITLE4=tus desprecios
TTITLE5=El cisne
TTITLE6=El corrido de los alteños de la sierra
TTITLE7=La mas bonita de todas (con guitarras)
TTITLE8=Dueña de mi vida
TTITLE9=Tamarindo
TTITLE10=Corrido del mariguano
TTITLE11=Muñeca ojos de miel
EXTD=YEAR: 2004
EXTT0=
EXTT1=
EXTT2=
EXTT3=
EXTT4=
EXTT5=
EXTT6=
EXTT7=
EXTT8=
EXTT9=
EXTT10=
EXTT11=
PLAYORDER=
